<svg width="20" height="20" viewBox="0 0 20 20" fill="none" xmlns="http://www.w3.org/2000/svg">
<path d="M15 19.1662V19.9995H5V19.1662H15ZM19.1667 14.9995V4.99951C19.1667 2.69833 17.3012 0.832845 15 0.832845H5C2.69881 0.832845 0.833333 2.69833 0.833333 4.99951V14.9995C0.833333 17.3007 2.69881 19.1662 5 19.1662V19.9995C2.23858 19.9995 0 17.7609 0 14.9995V4.99951C0 2.23809 2.23858 -0.000488281 5 -0.000488281H15C17.7614 -0.000488281 20 2.23809 20 4.99951V14.9995C20 17.7609 17.7614 19.9995 15 19.9995V19.1662C17.3012 19.1662 19.1667 17.3007 19.1667 14.9995Z" fill="#1C1C1C"/>
<path d="M10.6462 5.44922L14.1689 14.2435C14.3188 14.5808 14.1689 14.9056 13.8191 14.9805C13.4069 15.0555 13.1695 14.9056 13.0446 14.5808C12.7948 13.9687 12.3076 12.657 12.1827 12.3447C12.1702 12.2948 12.1077 12.2448 12.0453 12.2448H7.93545C7.64813 12.2448 7.41078 12.0075 7.41078 11.7202C7.41078 11.4328 7.64813 11.183 7.93545 11.183H11.6206C11.6206 11.183 11.7205 11.1455 11.6955 11.0831C11.4332 10.4335 10.2714 7.53537 9.94664 6.72339C9.93415 6.68592 9.87169 6.68592 9.8592 6.72339C9.48444 7.67278 7.59816 12.7945 6.94858 14.4434C6.81117 14.7807 6.52386 14.9431 6.17409 14.8806C5.89927 14.8306 5.69939 14.5058 5.79933 14.2435L9.29706 5.46171C9.40949 5.18689 9.67182 4.99951 9.95913 4.99951C10.2464 4.99951 10.5088 5.1744 10.6087 5.43673L10.6462 5.44922Z" fill="#1C1C1C"/>
</svg>
