<svg width="20" height="20" viewBox="0 0 20 20" fill="none" xmlns="http://www.w3.org/2000/svg">
<path d="M19.1164 5.76229C19.1162 4.68434 18.2466 3.81534 17.1686 3.81534H13.9608L13.8978 3.4482L13.6263 1.87928C13.5371 1.36538 12.9679 0.883634 12.1663 0.883634H7.8337C7.04269 0.883634 6.46836 1.36424 6.3729 1.88395L6.10221 3.4482L6.0392 3.81534H2.83136C1.75338 3.81534 0.883768 4.68434 0.883634 5.76229V17.1686C0.883634 18.2467 1.75329 19.1164 2.83136 19.1164H17.1686C18.2467 19.1164 19.1164 18.2467 19.1164 17.1686V5.76229ZM13.5408 11.4577C13.5408 9.50345 11.9542 7.91693 10 7.91693C8.04576 7.91693 6.45924 9.50345 6.45924 11.4577C6.45927 13.4119 8.04578 14.9984 10 14.9984C11.9542 14.9984 13.5407 13.4119 13.5408 11.4577ZM14.4244 11.4577C14.4244 13.9002 12.4425 15.8821 10 15.8821C7.55749 15.8821 5.57564 13.9002 5.57561 11.4577C5.57561 9.01516 7.55747 7.03329 10 7.03329C12.4425 7.03329 14.4244 9.01516 14.4244 11.4577ZM20 17.1686C20 18.735 18.735 20 17.1686 20H2.83136C1.265 20 0 18.735 0 17.1686V5.76229C0.000133971 4.19604 1.26508 2.93093 2.83136 2.93093H5.2948L5.50249 1.72838L5.50327 1.72371C5.69471 0.682433 6.72911 0 7.8337 0H12.1663C13.2763 0 14.3159 0.681176 14.4975 1.72838L14.7052 2.93093H17.1686C18.7349 2.93093 19.9999 4.19604 20 5.76229V17.1686Z" fill="#1C1C1C"/>
</svg>
