<svg width="12" height="12" viewBox="0 0 12 12" fill="none" xmlns="http://www.w3.org/2000/svg">
<path d="M0.187457 0.0681067C0.282137 -0.0245075 0.434113 -0.0227577 0.526835 0.0718567L11.8163 11.592C11.909 11.6866 11.9077 11.8386 11.813 11.9313C11.7184 12.0241 11.5664 12.0222 11.4737 11.9276L0.183707 0.407485C0.0910931 0.312805 0.0928429 0.160829 0.187457 0.0681067Z" fill="#1C1C1C"/>
<path d="M11.4737 0.0719189C11.5664 -0.022737 11.7184 -0.0245684 11.813 0.0681688C11.9077 0.160928 11.909 0.312875 11.8163 0.407547L0.526835 11.9277C0.434113 12.0223 0.282137 12.024 0.187457 11.9314C0.0928429 11.8387 0.0910931 11.6867 0.183707 11.592L11.4737 0.0719189Z" fill="#1C1C1C"/>
</svg>
