<svg width="16" height="16" viewBox="0 0 16 16" fill="none" xmlns="http://www.w3.org/2000/svg">
<path d="M13.9072 0.5C13.988 0.5 14.0645 0.512205 14.1387 0.537109C14.1777 0.550285 14.2277 0.578224 14.2871 0.639648L14.292 0.644531L15.3584 1.71777L15.3662 1.72559C15.4255 1.78282 15.451 1.8302 15.4629 1.86719C15.4884 1.94774 15.5 2.02367 15.5 2.09668C15.5 2.17472 15.4866 2.24556 15.4619 2.3125C15.4431 2.36345 15.4122 2.41608 15.3604 2.4707L2.3125 15.5H0.5V13.6865L13.5137 0.660156C13.5744 0.606008 13.6384 0.566723 13.707 0.539062C13.7711 0.513308 13.8365 0.500003 13.9072 0.5Z" stroke="#1C1C1C"/>
</svg>
