<svg width="20" height="20" viewBox="0 0 20 20" fill="none" xmlns="http://www.w3.org/2000/svg">
<path d="M17.4522 0.833333C18.3664 0.833333 19.1143 1.58333 19.1143 2.5V17.5C19.1143 18.4167 18.3664 19.1667 17.4522 19.1667H2.49317C1.57901 19.1667 0.831057 18.4167 0.831057 17.5V2.5C0.831057 1.58333 1.57901 0.833333 2.49317 0.833333H17.4522ZM17.4522 0H2.49317C1.11362 0 0 1.11667 0 2.5V17.5C0 18.8833 1.11362 20 2.49317 20H17.4522C18.8318 20 19.9454 18.8833 19.9454 17.5V2.5C19.9454 1.11667 18.8318 0 17.4522 0Z" fill="#1C1C1C"/>
<path d="M20 9.38354L19.3921 9.99959L16.8746 7.50448L12.7055 12.7283L12.3647 12.3775L7.72568 7.61841L4.29513 12.3214L0.328132 9.71232L0.802094 8.98804L4.08169 11.1446L7.63153 6.28133L12.6414 11.4213L16.4997 6.58732L16.7999 6.21216L20 9.38354Z" fill="#1C1C1C"/>
</svg>
