<svg width="24" height="24" viewBox="0 0 24 24" fill="none" xmlns="http://www.w3.org/2000/svg">
<path d="M3.05176e-05 23.4995C3.05176e-05 23.2234 0.223888 22.9995 0.500031 22.9995H23.5C23.7762 22.9995 24 23.2234 24 23.4995C24 23.7757 23.7762 23.9995 23.5 23.9995H0.50003C0.223888 23.9995 3.05176e-05 23.7757 3.05176e-05 23.4995Z" fill="#1C1C1C"/>
<path d="M3.05176e-05 0.499512C3.05176e-05 0.223369 0.223888 -0.000488281 0.500031 -0.000488281H23.5C23.7762 -0.000488281 24 0.223369 24 0.499512C24 0.775654 23.7762 0.999512 23.5 0.999512H0.50003C0.223888 0.999512 3.05176e-05 0.775654 3.05176e-05 0.499512Z" fill="#1C1C1C"/>
<path d="M0 8.5C0 8.22386 0.223858 8 0.5 8H23.5C23.7761 8 24 8.22386 24 8.5C24 8.77614 23.7761 9 23.5 9H0.5C0.223857 9 0 8.77614 0 8.5Z" fill="#1C1C1C"/>
<path d="M0 16C0 15.7239 0.223858 15.5 0.5 15.5H23.5C23.7761 15.5 24 15.7239 24 16C24 16.2761 23.7761 16.5 23.5 16.5H0.5C0.223857 16.5 0 16.2761 0 16Z" fill="#1C1C1C"/>
</svg>
