<svg width="20" height="20" viewBox="0 0 20 20" fill="none" xmlns="http://www.w3.org/2000/svg">
<g clip-path="url(#clip0_23092_719)">
<path d="M11.676 2.11406C11.676 1.43886 11.1306 0.895653 10.4527 0.895653H2.12266C1.44472 0.895653 0.899297 1.43886 0.899297 2.11406V11.2586C0.899448 11.9337 1.44481 12.4762 2.12266 12.4762H8.3064V17.8859C8.3064 18.5611 8.85182 19.1043 9.52976 19.1043H17.8782C18.5561 19.1043 19.1007 18.5611 19.1007 17.8859V8.74136C19.1006 8.06631 18.556 7.52391 17.8782 7.52383H11.676V2.11406ZM12.5753 6.62818H17.8782C19.0527 6.62826 19.9999 7.57166 20 8.74136V17.8859C20 19.0557 19.0528 19.9999 17.8782 20H9.52976C8.35515 20 7.4071 19.0558 7.4071 17.8859V13.3718H2.12266C0.948141 13.3718 0.000151299 12.4284 0 11.2586V2.11406C0 0.944206 0.948048 0 2.12266 0H10.4527C11.6273 0 12.5753 0.944206 12.5753 2.11406V6.62818Z" fill="#1C1C1C"/>
<path d="M14.0841 10.3411L16.4341 16.2078C16.5341 16.4328 16.4341 16.6494 16.2008 16.6994C15.9258 16.7494 15.7675 16.6494 15.6841 16.4328C15.5175 16.0244 15.1925 15.1494 15.1091 14.9411C15.1008 14.9078 15.0591 14.8744 15.0175 14.8744H12.2758C12.0841 14.8744 11.9258 14.7161 11.9258 14.5244C11.9258 14.3328 12.0841 14.1661 12.2758 14.1661H14.7341C14.7341 14.1661 14.8008 14.1411 14.7841 14.0994C14.6091 13.6661 13.8341 11.7328 13.6175 11.1911C13.6091 11.1661 13.5675 11.1661 13.5591 11.1911C13.3091 11.8244 12.0508 15.2411 11.6175 16.3411C11.5258 16.5661 11.3341 16.6744 11.1008 16.6328C10.9175 16.5994 10.7841 16.3828 10.8508 16.2078L13.1841 10.3494C13.2591 10.1661 13.4341 10.0411 13.6258 10.0411C13.8175 10.0411 13.9925 10.1578 14.0591 10.3328L14.0841 10.3411Z" fill="#1C1C1C"/>
<path d="M8.55004 10.0413H4.08337C3.80837 10.0413 3.58337 9.81626 3.58337 9.54126V3.83292C3.58337 3.55792 3.80004 3.33292 4.08337 3.33292H8.55004C8.82504 3.33292 9.05004 3.54959 9.05004 3.83292V9.54959C9.05004 9.81626 8.83337 10.0496 8.55004 10.0496V10.0413ZM8.23337 4.22459C8.23337 4.22459 8.19171 4.14126 8.15004 4.14126H4.44171C4.44171 4.14126 4.37504 4.18292 4.37504 4.22459V9.16626C4.37504 9.16626 4.40837 9.23292 4.44171 9.23292H8.15004C8.15004 9.23292 8.23337 9.19959 8.23337 9.16626V7.17459C8.23337 7.17459 8.19171 7.09126 8.15004 7.09126H4.27504C4.05837 7.09126 3.87504 6.92459 3.87504 6.70792C3.87504 6.49126 4.05004 6.30792 4.27504 6.30792H8.15004C8.15004 6.30792 8.23337 6.26626 8.23337 6.22459V4.21626V4.22459Z" fill="#1C1C1C"/>
</g>
<defs>
<clipPath id="clip0_23092_719">
<rect width="20" height="20" fill="white"/>
</clipPath>
</defs>
</svg>
